<svg width="40" height="40" viewBox="0 0 33 32" fill="none" xmlns="http://www.w3.org/2000/svg">
<path d="M15.7978 2H17.7978V5H15.7978V2ZM27.7978 15H30.7978V17H27.7978V15ZM15.7978 27H17.7978V30H15.7978V27ZM2.79776 15H5.79776V17H2.79776V15ZM6.24776 6.883L7.66176 5.47L9.78376 7.59L8.36776 9.004L6.24776 6.883ZM23.7978 7.581L25.9178 5.46L27.3318 6.874L25.2108 8.996L23.7978 7.581ZM23.7998 24.416L25.2138 23.002L27.3358 25.124L25.9218 26.538L23.7998 24.416ZM6.26776 25.13L8.38776 23L9.79776 24.42L7.67776 26.54L6.26776 25.13ZM16.7978 8C15.2155 8 13.6688 8.46919 12.3532 9.34824C11.0376 10.2273 10.0122 11.4767 9.40672 12.9385C8.80122 14.4003 8.6428 16.0089 8.95148 17.5607C9.26016 19.1126 10.0221 20.538 11.1409 21.6569C12.2597 22.7757 13.6852 23.5376 15.237 23.8463C16.7889 24.155 18.3974 23.9965 19.8592 23.391C21.321 22.7855 22.5705 21.7602 23.4495 20.4446C24.3286 19.129 24.7978 17.5823 24.7978 16C24.7978 13.8783 23.9549 11.8434 22.4546 10.3431C20.9543 8.84285 18.9195 8 16.7978 8ZM16.7978 22C15.2065 22 13.6803 21.3679 12.5551 20.2426C11.4299 19.1174 10.7978 17.5913 10.7978 16C10.7978 14.4087 11.4299 12.8826 12.5551 11.7574C13.6803 10.6321 15.2065 10 16.7978 10V22Z" fill="black"/>
</svg>
