<svg width="40" height="40" viewBox="0 0 25 24" fill="none" xmlns="http://www.w3.org/2000/svg">
<path fill-rule="evenodd" clip-rule="evenodd" d="M11.6721 1.953C12.9401 1.961 14.3431 2.464 15.6721 3.793C15.9871 4.108 16.2571 4.478 16.3721 4.916C16.4882 5.35047 16.4275 5.81324 16.2031 6.203C16.0191 6.534 15.7511 6.786 15.5251 6.971C14.9931 7.407 14.3601 7.719 13.8721 8.207C13.6032 8.47038 13.4116 8.8024 13.3181 9.167C14.0551 8.408 14.9861 7.677 16.0071 7.234C16.8201 6.881 17.7521 6.686 18.7081 6.88C19.6841 7.077 20.5641 7.654 21.2921 8.624C21.7601 9.249 22.2201 10.274 22.2121 11.507C22.2041 12.775 21.7021 14.178 20.3721 15.507C20.0571 15.822 19.6881 16.092 19.2491 16.207C18.8146 16.3231 18.3519 16.2623 17.9621 16.038C17.6311 15.854 17.3791 15.586 17.1941 15.36C16.7591 14.828 16.4461 14.195 15.9581 13.707C15.6947 13.4381 15.3627 13.2465 14.9981 13.153C15.7571 13.89 16.4881 14.821 16.9311 15.842C17.2841 16.655 17.4791 17.587 17.2861 18.543C17.0881 19.519 16.5111 20.399 15.5411 21.127C14.9161 21.595 13.8911 22.055 12.6581 22.047C11.3911 22.039 9.98711 21.537 8.65811 20.207C8.34311 19.892 8.07311 19.523 7.95811 19.084C7.8423 18.6494 7.90343 18.1866 8.12811 17.797C8.31111 17.466 8.57911 17.214 8.80511 17.029C9.33711 16.594 9.97011 16.281 10.4581 15.793C10.7274 15.5297 10.9193 15.1977 11.0131 14.833C10.2751 15.592 9.34311 16.323 8.32311 16.766C7.51011 17.119 6.57811 17.314 5.62211 17.121C4.64611 16.923 3.76611 16.346 3.03811 15.376C2.57011 14.751 2.11011 13.726 2.11811 12.493C2.12611 11.226 2.62911 9.822 3.95811 8.493C4.27311 8.178 4.64311 7.908 5.08111 7.793C5.51571 7.67719 5.97849 7.73832 6.36811 7.963C6.69911 8.146 6.95111 8.414 7.13611 8.64C7.57211 9.172 7.88411 9.805 8.37211 10.293C8.62611 10.547 8.95111 10.754 9.33211 10.848C8.57311 10.11 7.84211 9.178 7.39911 8.158C7.04611 7.345 6.85111 6.413 7.04511 5.457C7.24211 4.481 7.81911 3.601 8.78911 2.873C9.41411 2.405 10.4391 1.945 11.6721 1.953ZM10.0681 12.893C8.79811 12.987 7.69311 12.443 6.95811 11.707C6.57211 11.321 6.26011 10.863 6.02211 10.513C5.8859 10.3048 5.74111 10.1022 5.58811 9.906C5.49111 9.788 5.48011 9.799 5.37211 9.907C4.38811 10.891 4.12211 11.801 4.11811 12.507C4.11233 13.1041 4.29423 13.6879 4.63811 14.176C5.12011 14.817 5.59611 15.075 6.01811 15.16C6.45911 15.25 6.96611 15.175 7.52811 14.931C8.48811 14.515 9.42211 13.682 10.0681 12.893ZM13.0581 14.097C13.1521 15.367 12.6081 16.472 11.8721 17.207C11.4861 17.593 11.0281 17.905 10.6781 18.143C10.4731 18.283 10.2641 18.419 10.0711 18.577C9.95311 18.674 9.96411 18.685 10.0721 18.793C11.0561 19.777 11.9671 20.043 12.6721 20.047C13.2692 20.0528 13.853 19.8709 14.3411 19.527C14.9821 19.045 15.2401 18.569 15.3251 18.147C15.4151 17.706 15.3401 17.199 15.0961 16.637C14.6801 15.677 13.8471 14.744 13.0581 14.097ZM14.2621 11.107C15.5321 11.013 16.6371 11.557 17.3721 12.293C17.9121 12.833 18.2621 13.508 18.7421 14.093C18.8391 14.213 18.8501 14.201 18.9581 14.093C19.9421 13.109 20.2081 12.199 20.2121 11.493C20.2171 10.755 19.9351 10.148 19.6921 9.824C19.2101 9.183 18.7341 8.925 18.3121 8.84C17.8711 8.75 17.3641 8.825 16.8021 9.069C15.8421 9.485 14.9091 10.318 14.2621 11.107ZM11.2721 9.903C11.1781 8.633 11.7221 7.528 12.4581 6.793C12.8551 6.396 13.3281 6.078 13.6821 5.837C13.8805 5.70761 14.073 5.56947 14.2591 5.423C14.3771 5.326 14.3661 5.315 14.2581 5.207C13.2741 4.223 12.3641 3.957 11.6581 3.953C11.061 3.94722 10.4772 4.12911 9.98911 4.473C9.34811 4.955 9.09011 5.431 9.00511 5.853C8.91511 6.294 8.99011 6.801 9.23411 7.363C9.65011 8.323 10.4831 9.257 11.2721 9.903Z" fill="black"/>
</svg>
