<?xml version="1.0" standalone="no"?>
<!DOCTYPE svg PUBLIC "-//W3C//DTD SVG 20010904//EN"
 "http://www.w3.org/TR/2001/REC-SVG-20010904/DTD/svg10.dtd">
<svg version="1.0" xmlns="http://www.w3.org/2000/svg"
 width="512.000000pt" height="512.000000pt" viewBox="0 0 512.000000 512.000000"
 preserveAspectRatio="xMidYMid meet">

<g transform="translate(0.000000,512.000000) scale(0.100000,-0.100000)"
fill="#000000" stroke="none">
<path d="M1665 4944 c-71 -37 -84 -60 -125 -224 -37 -146 -48 -170 -97 -207
l-36 -28 -486 -5 c-343 -4 -492 -8 -506 -17 -31 -18 -73 -65 -84 -96 -17 -44
-14 -380 3 -420 16 -39 61 -82 99 -96 20 -8 669 -11 2128 -11 2286 0 2135 -4
2191 56 43 46 48 74 48 264 0 190 -5 218 -48 264 -53 56 -51 56 -554 56 -461
0 -463 0 -503 23 -58 33 -79 71 -114 213 -37 149 -49 174 -98 211 l-36 28
-876 3 c-780 2 -879 0 -906 -14z"/>
<path d="M775 3501 c-23 -10 -53 -32 -68 -50 -57 -68 -61 14 82 -1497 72 -764
136 -1412 142 -1441 23 -117 122 -248 227 -302 103 -53 60 -51 1402 -51 1342
0 1299 -2 1402 51 105 54 204 185 227 302 6 29 70 677 142 1441 143 1511 139
1429 82 1497 -15 18 -45 40 -68 50 -38 18 -113 19 -1785 19 -1672 0 -1747 -1
-1785 -19z m1081 -976 c66 -50 65 -38 62 -620 -3 -511 -3 -524 -24 -551 -32
-44 -68 -66 -116 -71 -58 -7 -108 15 -144 63 l-29 37 -3 511 c-2 281 0 525 3
543 7 40 49 91 90 109 46 22 117 12 161 -21z m800 0 c66 -50 65 -38 62 -620
-3 -511 -3 -524 -24 -551 -32 -44 -68 -66 -116 -71 -58 -7 -108 15 -144 63
l-29 37 -3 511 c-2 281 0 525 3 543 7 40 49 91 90 109 46 22 117 12 161 -21z
m800 0 c66 -50 65 -38 62 -620 -3 -511 -3 -524 -24 -551 -32 -44 -68 -66 -116
-71 -58 -7 -108 15 -144 63 l-29 37 -3 511 c-2 281 0 525 3 543 7 40 49 91 90
109 46 22 117 12 161 -21z"/>
</g>
</svg>
