<svg width="25" height="25" viewBox="0 0 25 25" fill="none" xmlns="http://www.w3.org/2000/svg">
<path d="M22.8856 12.9508H16.8856L14.8856 15.9508H10.8856L8.88556 12.9508H2.88556" stroke="green" stroke-width="2" stroke-linecap="round" stroke-linejoin="round"/>
<path d="M6.33556 6.06081L2.88556 12.9508V18.9508C2.88556 19.4812 3.09627 19.9899 3.47135 20.365C3.84642 20.7401 4.35513 20.9508 4.88556 20.9508H20.8856C21.416 20.9508 21.9247 20.7401 22.2998 20.365C22.6748 19.9899 22.8856 19.4812 22.8856 18.9508V12.9508L19.4356 6.06081C19.27 5.7276 19.0147 5.44718 18.6985 5.25109C18.3823 5.055 18.0176 4.95101 17.6456 4.95081H8.12556C7.75347 4.95101 7.38882 5.055 7.0726 5.25109C6.75638 5.44718 6.50114 5.7276 6.33556 6.06081Z" stroke="green" stroke-width="2" stroke-linecap="round" stroke-linejoin="round"/>
</svg>
