<svg width="50" height="50" viewBox="0 0 25 25" fill="none" xmlns="http://www.w3.org/2000/svg">
<g clip-path="url(#clip0_613_612)">
<path d="M12.7978 15.4671C14.4546 15.4671 15.7978 14.124 15.7978 12.4671C15.7978 10.8103 14.4546 9.46715 12.7978 9.46715C11.1409 9.46715 9.79776 10.8103 9.79776 12.4671C9.79776 14.124 11.1409 15.4671 12.7978 15.4671Z" stroke="green" stroke-width="2" stroke-linecap="round" stroke-linejoin="round"/>
<path d="M20.1978 15.4671C20.0646 15.7688 20.0249 16.1033 20.0838 16.4277C20.1426 16.7521 20.2972 17.0515 20.5278 17.2871L20.5878 17.3471C20.7737 17.5329 20.9212 17.7535 21.0219 17.9963C21.1225 18.2391 21.1743 18.4993 21.1743 18.7621C21.1743 19.025 21.1225 19.2852 21.0219 19.528C20.9212 19.7708 20.7737 19.9914 20.5878 20.1771C20.402 20.3631 20.1814 20.5106 19.9386 20.6113C19.6958 20.7119 19.4356 20.7637 19.1728 20.7637C18.9099 20.7637 18.6497 20.7119 18.4069 20.6113C18.1641 20.5106 17.9435 20.3631 17.7578 20.1771L17.6978 20.1171C17.4621 19.8866 17.1627 19.732 16.8383 19.6731C16.514 19.6143 16.1794 19.654 15.8778 19.7871C15.582 19.9139 15.3297 20.1244 15.1521 20.3927C14.9744 20.661 14.879 20.9754 14.8778 21.2971V21.4671C14.8778 21.9976 14.667 22.5063 14.292 22.8814C13.9169 23.2564 13.4082 23.4671 12.8778 23.4671C12.3473 23.4671 11.8386 23.2564 11.4635 22.8814C11.0885 22.5063 10.8778 21.9976 10.8778 21.4671V21.3771C10.87 21.0462 10.7629 20.7251 10.5703 20.4558C10.3777 20.1866 10.1085 19.9814 9.79776 19.8671C9.49614 19.734 9.16157 19.6943 8.83717 19.7531C8.51278 19.812 8.21344 19.9666 7.97776 20.1971L7.91776 20.2571C7.73201 20.4431 7.51144 20.5906 7.26864 20.6913C7.02584 20.7919 6.76559 20.8437 6.50276 20.8437C6.23993 20.8437 5.97968 20.7919 5.73688 20.6913C5.49408 20.5906 5.27351 20.4431 5.08776 20.2571C4.90181 20.0714 4.75429 19.8508 4.65364 19.608C4.55299 19.3652 4.50119 19.105 4.50119 18.8421C4.50119 18.5793 4.55299 18.3191 4.65364 18.0763C4.75429 17.8335 4.90181 17.6129 5.08776 17.4271L5.14776 17.3671C5.3783 17.1315 5.53295 16.8321 5.59176 16.5077C5.65058 16.1833 5.61088 15.8488 5.47776 15.5471C5.351 15.2514 5.14052 14.9991 4.87223 14.8215C4.60394 14.6438 4.28955 14.5484 3.96776 14.5471H3.79776C3.26733 14.5471 2.75862 14.3364 2.38355 13.9614C2.00847 13.5863 1.79776 13.0776 1.79776 12.5471C1.79776 12.0167 2.00847 11.508 2.38355 11.1329C2.75862 10.7579 3.26733 10.5471 3.79776 10.5471H3.88776C4.21875 10.5394 4.53976 10.4323 4.80906 10.2397C5.07835 10.0471 5.28348 9.77788 5.39776 9.46715C5.53088 9.16553 5.57058 8.83095 5.51176 8.50656C5.45295 8.18216 5.2983 7.88283 5.06776 7.64715L5.00776 7.58715C4.82181 7.4014 4.67429 7.18082 4.57364 6.93803C4.47299 6.69523 4.42119 6.43498 4.42119 6.17215C4.42119 5.90932 4.47299 5.64906 4.57364 5.40627C4.67429 5.16347 4.82181 4.94289 5.00776 4.75715C5.19351 4.57119 5.41408 4.42368 5.65688 4.32303C5.89968 4.22238 6.15993 4.17057 6.42276 4.17057C6.68559 4.17057 6.94584 4.22238 7.18864 4.32303C7.43144 4.42368 7.65201 4.57119 7.83776 4.75715L7.89776 4.81715C8.13344 5.04768 8.43278 5.20233 8.75717 5.26115C9.08157 5.31997 9.41614 5.28026 9.71776 5.14715H9.79776C10.0935 5.02038 10.3458 4.8099 10.5235 4.54161C10.7011 4.27332 10.7965 3.95893 10.7978 3.63715V3.46715C10.7978 2.93671 11.0085 2.42801 11.3835 2.05293C11.7586 1.67786 12.2673 1.46715 12.7978 1.46715C13.3282 1.46715 13.8369 1.67786 14.212 2.05293C14.587 2.42801 14.7978 2.93671 14.7978 3.46715V3.55715C14.799 3.87893 14.8944 4.19332 15.0721 4.46161C15.2497 4.7299 15.502 4.94038 15.7978 5.06715C16.0994 5.20026 16.434 5.23997 16.7583 5.18115C17.0827 5.12233 17.3821 4.96768 17.6178 4.73715L17.6778 4.67715C17.8635 4.49119 18.0841 4.34368 18.3269 4.24303C18.5697 4.14238 18.8299 4.09057 19.0928 4.09057C19.3556 4.09057 19.6158 4.14238 19.8586 4.24303C20.1014 4.34368 20.322 4.49119 20.5078 4.67715C20.6937 4.86289 20.8412 5.08347 20.9419 5.32627C21.0425 5.56906 21.0943 5.82932 21.0943 6.09215C21.0943 6.35498 21.0425 6.61523 20.9419 6.85803C20.8412 7.10082 20.6937 7.3214 20.5078 7.50715L20.4478 7.56715C20.2172 7.80283 20.0626 8.10216 20.0038 8.42656C19.9449 8.75095 19.9846 9.08553 20.1178 9.38715V9.46715C20.2445 9.76292 20.455 10.0152 20.7233 10.1928C20.9916 10.3705 21.306 10.4659 21.6278 10.4671H21.7978C22.3282 10.4671 22.8369 10.6779 23.212 11.0529C23.587 11.428 23.7978 11.9367 23.7978 12.4671C23.7978 12.9976 23.587 13.5063 23.212 13.8814C22.8369 14.2564 22.3282 14.4671 21.7978 14.4671H21.7078C21.386 14.4684 21.0716 14.5638 20.8033 14.7415C20.535 14.9191 20.3245 15.1714 20.1978 15.4671Z" stroke="green" stroke-width="2" stroke-linecap="round" stroke-linejoin="round"/>
</g>
<defs>
<clipPath id="clip0_613_612">
<rect width="24" height="24" fill="white" transform="translate(0.79776 0.467148)"/>
</clipPath>
</defs>
</svg>
