<svg width="40" height="40" viewBox="0 0 25 24" fill="none" xmlns="http://www.w3.org/2000/svg">
<path d="M3.79776 17H7.89776C7.61443 16.7167 7.35209 16.4083 7.11076 16.075C6.86943 15.7417 6.65676 15.3833 6.47276 15H3.79776V17ZM12.7978 17C14.1811 17 15.3604 16.5123 16.3358 15.537C17.3111 14.5617 17.7984 13.3827 17.7978 12C17.7971 10.6173 17.3094 9.43833 16.3348 8.463C15.3601 7.48767 14.1811 7 12.7978 7C11.4144 7 10.2354 7.48767 9.26076 8.463C8.28609 9.43833 7.79843 10.6173 7.79776 12C7.79709 13.3827 8.28476 14.562 9.26076 15.538C10.2368 16.514 11.4158 17.0013 12.7978 17ZM19.1228 9H21.7978V7H17.6978C17.9811 7.28333 18.2438 7.59167 18.4858 7.925C18.7278 8.25833 18.9401 8.61667 19.1228 9ZM1.79776 20V12H3.79776V13H5.87276C5.83943 12.8333 5.81876 12.6707 5.81076 12.512C5.80276 12.3533 5.79843 12.1827 5.79776 12C5.79776 10.05 6.47709 8.396 7.83576 7.038C9.19443 5.68 10.8484 5.00067 12.7978 5H21.7978V4H23.7978V12H21.7978V11H19.7228C19.7561 11.1667 19.7771 11.3293 19.7858 11.488C19.7944 11.6467 19.7984 11.8173 19.7978 12C19.7978 13.95 19.1188 15.6043 17.7608 16.963C16.4028 18.3217 14.7484 19.0007 12.7978 19H3.79776V20H1.79776ZM12.7978 15C12.2478 15 11.7771 14.8043 11.3858 14.413C10.9944 14.0217 10.7984 13.5507 10.7978 13C10.7978 12.6167 10.8771 12.2377 11.0358 11.863C11.1944 11.4883 11.4984 10.9507 11.9478 10.25L12.7978 9L13.6478 10.25C14.0978 10.95 14.4021 11.4877 14.5608 11.863C14.7194 12.2383 14.7984 12.6173 14.7978 13C14.7978 13.55 14.6021 14.021 14.2108 14.413C13.8194 14.805 13.3484 15.0007 12.7978 15Z" fill="black"/>
</svg>
